<svg width="20" height="20" viewBox="0 0 20 20" fill="none" xmlns="http://www.w3.org/2000/svg">
<path d="M4.16447 14.1646C5.53956 14.1646 6.65823 15.2833 6.65823 16.6584C6.65823 18.0334 5.53952 19.1521 4.16447 19.1521C2.78942 19.1521 1.6707 18.0334 1.6707 16.6584C1.6707 15.2833 2.78942 14.1646 4.16447 14.1646ZM4.16447 17.6559C4.71459 17.6559 5.16197 17.2085 5.16197 16.6584C5.16197 16.1083 4.71459 15.6609 4.16447 15.6609C3.61435 15.6609 3.16696 16.1083 3.16696 16.6584C3.16696 17.2085 3.61435 17.6559 4.16447 17.6559Z" fill="#273E87"/>
<path d="M0.158985 4.52638C0.300627 4.34509 0.517857 4.23934 0.748013 4.23934H15.382L16.0553 1.42214C16.1359 1.0855 16.4369 0.847839 16.783 0.847839H19.2519C19.6651 0.8478 20 1.18272 20 1.59593C20 2.00914 19.6651 2.34406 19.2519 2.34406H17.3735L14.9421 12.5177C14.8616 12.8546 14.5606 13.092 14.2144 13.092H2.56845C2.22454 13.092 1.92482 12.8576 1.84228 12.5239L0.0217972 5.16724C-0.0332813 4.94384 0.0173454 4.70767 0.158985 4.52638ZM3.15377 11.5958H13.6239L15.0244 5.7356H1.70392L3.15377 11.5958Z" fill="#273E87"/>
<path d="M13.2169 14.1646C14.592 14.1646 15.7107 15.2833 15.7107 16.6584C15.7107 18.0334 14.592 19.1521 13.2169 19.1521C11.8419 19.1521 10.7232 18.0334 10.7232 16.6584C10.7232 15.2833 11.8419 14.1646 13.2169 14.1646ZM13.2169 17.6559C13.767 17.6559 14.2144 17.2085 14.2144 16.6584C14.2144 16.1083 13.767 15.6609 13.2169 15.6609C12.6668 15.6609 12.2194 16.1083 12.2194 16.6584C12.2194 17.2085 12.6668 17.6559 13.2169 17.6559Z" fill="#273E87"/>
</svg>
